<svg height="512pt" viewBox="0 0 512 512" width="512pt" xmlns="http://www.w3.org/2000/svg" ><path d="m293.039062 210.492188c0 10.527343-8.5625 19.09375-19.09375 19.09375h-7.839843c-38.792969 0-71.152344 28.066406-77.839844 64.960937 24.453125-18.171875 54.371094-28.25 85.238281-28.25h.441406c10.527344 0 19.09375 8.5625 19.09375 19.09375v6.527344l40.105469-43.976563-40.105469-43.976562zm0 0"/><path d="m256 94.945312c-88.804688 0-161.054688 72.246094-161.054688 161.054688 0 88.804688 72.25 161.054688 161.054688 161.054688s161.054688-72.25 161.054688-161.054688c0-88.808594-72.25-161.054688-161.054688-161.054688zm106.015625 165.859376-65.769531 72.121093c-5.355469 5.871094-13.605469 7.808594-21.011719 4.9375-7.40625-2.871093-12.195313-9.859375-12.195313-17.804687v-23.273438c-27.78125 2.601563-53.886718 15.496094-72.839843 36.261719-3.707031 4.0625-8.804688 6.242187-14.046875 6.242187-2.328125 0-4.683594-.429687-6.960938-1.3125-7.40625-2.871093-12.191406-9.859374-12.191406-17.800781v-11.484375c0-59.136718 47.292969-107.433594 106.042969-109.0625v-23.804687c0-7.945313 4.785156-14.9375 12.195312-17.808594 7.40625-2.867187 15.652344-.933594 21.007813 4.9375l65.769531 72.117187c6.683594 7.335938 6.6875 18.398438 0 25.734376zm0 0"/><path d="m437.019531 74.980469c-48.351562-48.351563-112.640625-74.980469-181.019531-74.980469s-132.667969 26.628906-181.019531 74.980469c-48.351563 48.351562-74.980469 112.636719-74.980469 181.019531 0 68.378906 26.628906 132.667969 74.980469 181.019531 48.351562 48.351563 112.640625 74.980469 181.019531 74.980469s132.667969-26.628906 181.019531-74.980469c48.351563-48.351562 74.980469-112.640625 74.980469-181.019531 0-68.382812-26.628906-132.667969-74.980469-181.019531zm-181.019531 372.074219c-105.347656 0-191.054688-85.707032-191.054688-191.054688s85.707032-191.054688 191.054688-191.054688 191.054688 85.707032 191.054688 191.054688-85.707032 191.054688-191.054688 191.054688zm0 0"/></svg>