<svg xmlns="http://www.w3.org/2000/svg" xmlns:xlink="http://www.w3.org/1999/xlink" version="1.1" x="0px" y="0px" viewBox="0 0 100 100" style="enable-background:new 0 0 100 100;" xml:space="preserve"><path d="M34.3,92c-1.8,0-3.5-0.3-5.1-1c-4.8-1.9-8.2-6.2-8.9-11.2c-5-0.7-9.4-4.1-11.2-8.9c-2.7-7.1,0.5-15,7.4-18.1l0.1,0l0.8-0.3  c1.2-0.4,2.7-0.7,4.6-0.7c2.3,0,5.2,0.3,8.5,1C40.7,43.8,43.8,41,53,31.1c-1.3-6.5-1.5-11.2-0.5-13.9l0-0.1l0.3-0.7  C55.1,11.3,60.2,8,65.7,8c1.8,0,3.5,0.3,5.1,1c4.8,1.9,8.2,6.2,8.9,11.2c5,0.7,9.4,4.1,11.2,8.9c2.7,7-0.5,15-7.4,18.1l-0.1,0  l-0.7,0.3c-1.2,0.4-2.7,0.7-4.6,0.7c0,0,0,0,0,0c-2.5,0-5.6-0.4-9.4-1.2C59,56.2,56.1,59.3,47.2,69.7c1.2,6.2,1.3,10.5,0.3,13.1  l0,0.1l-0.3,0.7C44.9,88.7,39.8,92,34.3,92z M17.7,55.9c-5.2,2.4-7.7,8.4-5.6,13.8c1.6,4,5.4,6.7,9.7,6.9l1.6,0.1l0.1,1.6  c0.2,4.3,2.9,8.1,6.9,9.7c1.3,0.5,2.6,0.7,3.9,0.7c4.2,0,8.1-2.5,9.9-6.3l0.3-0.6c0.4-1.2,0.9-4.4-0.6-12.1l-0.2-0.8l0.5-0.6  C53.8,56.9,56.5,53.9,67.2,44l0.6-0.6l0.9,0.2c3.9,0.8,7.1,1.3,9.5,1.3c1.4,0,2.6-0.2,3.4-0.4l0.6-0.3c5.2-2.4,7.7-8.4,5.6-13.8  c-1.6-4-5.4-6.7-9.7-6.9l-1.6-0.1l-0.1-1.6c-0.2-4.3-2.9-8.1-6.9-9.7c-1.3-0.5-2.6-0.7-3.9-0.7c-4.2,0-8.1,2.5-9.9,6.4l-0.3,0.6  c-0.8,2.2-0.5,6.8,0.8,12.9l0.2,0.9L56,32.8c-9.9,10.7-12.9,13.4-24.2,23.1l-0.6,0.5l-0.8-0.2c-3.5-0.7-6.4-1.1-8.7-1.1  c-1.4,0-2.6,0.1-3.4,0.4L17.7,55.9z"/></svg>