<svg xmlns="http://www.w3.org/2000/svg" xmlns:xlink="http://www.w3.org/1999/xlink" xml:space="preserve" version="1.1" style="shape-rendering:geometricPrecision;text-rendering:geometricPrecision;image-rendering:optimizeQuality;" viewBox="0 0 333 333" x="0px" y="0px" fill-rule="evenodd" clip-rule="evenodd"><defs><style type="text/css">
   
    .fil0 {fill:black}
   
  </style></defs><g><path class="fil0" d="M255 214c31,0 56,25 56,56 0,30 -25,55 -56,55 -30,0 -55,-25 -55,-55 0,-2 0,-3 0,-5l-89 -51c-9,6 -21,10 -33,10 -30,0 -55,-24 -55,-55 0,-30 25,-55 55,-55 12,0 23,4 32,10l91 -52c-1,-3 -1,-6 -1,-8 0,-31 25,-56 55,-56 31,0 56,25 56,56 0,30 -25,55 -56,55 -15,0 -28,-6 -38,-16l-86 49c3,11 3,22 0,33l83 48c10,-11 25,-19 41,-19z"/></g></svg>