<svg xmlns="http://www.w3.org/2000/svg" xmlns:xlink="http://www.w3.org/1999/xlink" version="1.1" x="0px" y="0px" viewBox="0 0 100 100" enable-background="new 0 0 100 100" xml:space="preserve"><g><circle fill="none" cx="67.302" cy="59.165" r="3.497"/><path fill="none" d="M52.926,75.629h-5.119c-1.01,0-1.903,0.528-2.388,1.413c-0.475,0.863-0.454,1.871,0.05,2.711l3.499,3.807   c0.727,0.793,2.07,0.793,2.798,0l3.499-3.807c0.504-0.84,0.524-1.848,0.05-2.711C54.828,76.158,53.936,75.629,52.926,75.629z"/><path fill="none" d="M19.094,48.705c0-7.884,5.356-14.523,12.616-16.515L22.817,8.352c-0.338-0.904-1.114-1.476-2.077-1.53   c-0.963-0.049-1.798,0.426-2.235,1.286L9.82,25.2c-3.404,6.698-2.278,14.916,2.802,20.451l6.985,7.611L19.1,48.808   C19.096,48.773,19.094,48.74,19.094,48.705z"/><circle fill="none" cx="32.698" cy="59.165" r="3.497"/><path fill="none" d="M90.181,25.2L81.495,8.108c-0.436-0.86-1.3-1.337-2.235-1.286c-0.963,0.055-1.74,0.626-2.077,1.53L68.29,32.19   c7.26,1.992,12.616,8.632,12.616,16.515l-0.399,4.433l6.872-7.487C92.458,40.117,93.585,31.898,90.181,25.2z"/><path fill="none" d="M63.764,33.38H36.236c-8.433,0-15.297,6.848-15.325,15.274l1.53,13.463c0.558,4.907,2.557,9.48,5.781,13.222   l11.744,13.629c2.308,2.678,5.66,4.215,9.195,4.215h2.334c3.589,0,6.973-1.575,9.286-4.321L72.26,75.229   c3.248-3.859,5.205-8.553,5.657-13.574l1.175-13.031C79.089,40.255,72.214,33.38,63.764,33.38z M32.698,64.478   c-2.93,0-5.314-2.384-5.314-5.314s2.384-5.314,5.314-5.314s5.314,2.384,5.314,5.314S35.628,64.478,32.698,64.478z M56.759,80.791   c-0.028,0.045-0.061,0.088-0.098,0.128l-3.557,3.87c-0.702,0.764-1.699,1.202-2.737,1.202s-2.035-0.438-2.737-1.202l-3.557-3.87   c-0.036-0.04-0.069-0.083-0.098-0.128c-0.903-1.42-0.959-3.148-0.149-4.624c0.81-1.474,2.298-2.355,3.981-2.355h5.119   c1.683,0,3.17,0.881,3.98,2.355C57.718,77.643,57.662,79.372,56.759,80.791z M67.302,64.478c-2.93,0-5.314-2.384-5.314-5.314   s2.384-5.314,5.314-5.314c2.93,0,5.314,2.384,5.314,5.314S70.232,64.478,67.302,64.478z"/><path d="M91.801,24.377L83.114,7.285c-0.763-1.499-2.283-2.374-3.957-2.277c-1.679,0.096-3.087,1.134-3.675,2.709l-8.986,24.086   c-0.892-0.144-1.8-0.239-2.732-0.239H36.236c-0.932,0-1.84,0.095-2.731,0.239L24.519,7.717c-0.588-1.576-1.997-2.614-3.676-2.709   c-1.7-0.098-3.195,0.778-3.956,2.277L8.2,24.377c-3.745,7.369-2.506,16.412,3.084,22.502l8.671,9.448l0.682,5.996   c0.598,5.271,2.746,10.182,6.209,14.202L38.59,90.154C41.244,93.234,45.098,95,49.162,95h2.334c4.126,0,8.018-1.811,10.675-4.967   c0,0,0,0,0-0.001l11.478-13.634c3.489-4.145,5.59-9.186,6.078-14.58l0.513-5.703l8.477-9.236   C94.306,40.79,95.545,31.747,91.801,24.377z M12.622,45.652C7.542,40.116,6.416,31.898,9.82,25.2l8.686-17.093   c0.436-0.86,1.271-1.335,2.235-1.286c0.963,0.054,1.739,0.626,2.077,1.53L31.71,32.19c-7.26,1.992-12.616,8.632-12.616,16.515   c0,0.035,0.002,0.068,0.006,0.103l0.507,4.454L12.622,45.652z M72.26,75.229L60.782,88.862c-2.313,2.746-5.697,4.321-9.286,4.321   h-2.334c-3.535,0-6.887-1.536-9.195-4.215L28.222,75.339c-3.225-3.743-5.223-8.315-5.781-13.222l-1.53-13.463   c0.028-8.427,6.892-15.274,15.325-15.274h27.528c8.45,0,15.325,6.875,15.328,15.243l-1.175,13.031   C77.464,66.677,75.508,71.37,72.26,75.229z M80.507,53.138l0.399-4.433c0-7.884-5.356-14.523-12.616-16.515l8.894-23.838   c0.337-0.904,1.113-1.475,2.077-1.53c0.935-0.051,1.798,0.426,2.235,1.286L90.181,25.2c3.404,6.698,2.277,14.917-2.802,20.451   L80.507,53.138z"/><path d="M32.698,53.851c-2.93,0-5.314,2.384-5.314,5.314s2.384,5.314,5.314,5.314s5.314-2.384,5.314-5.314   S35.628,53.851,32.698,53.851z M32.698,62.662c-1.929,0-3.497-1.568-3.497-3.497c0-1.929,1.568-3.497,3.497-3.497   s3.497,1.568,3.497,3.497C36.195,61.093,34.626,62.662,32.698,62.662z"/><path d="M67.302,53.851c-2.93,0-5.314,2.384-5.314,5.314s2.384,5.314,5.314,5.314c2.93,0,5.314-2.384,5.314-5.314   S70.232,53.851,67.302,53.851z M67.302,62.662c-1.929,0-3.497-1.568-3.497-3.497c0-1.929,1.568-3.497,3.497-3.497   c1.929,0,3.497,1.568,3.497,3.497C70.799,61.093,69.23,62.662,67.302,62.662z"/><path d="M52.926,73.813h-5.119c-1.683,0-3.171,0.881-3.981,2.355c-0.81,1.475-0.754,3.203,0.149,4.624   c0.028,0.045,0.061,0.088,0.098,0.128l3.557,3.87c0.702,0.764,1.699,1.202,2.737,1.202s2.035-0.438,2.737-1.202l3.557-3.87   c0.036-0.04,0.069-0.083,0.098-0.128c0.903-1.419,0.959-3.148,0.148-4.624C56.097,74.693,54.609,73.813,52.926,73.813z    M55.265,79.753l-3.499,3.807c-0.727,0.793-2.07,0.793-2.798,0l-3.499-3.807c-0.504-0.84-0.524-1.848-0.05-2.711   c0.485-0.885,1.379-1.413,2.388-1.413h5.119c1.01,0,1.902,0.529,2.388,1.413C55.789,77.906,55.769,78.913,55.265,79.753z"/></g></svg>