<svg xmlns="http://www.w3.org/2000/svg" xmlns:xlink="http://www.w3.org/1999/xlink" xml:space="preserve" version="1.1" style="shape-rendering:geometricPrecision;text-rendering:geometricPrecision;image-rendering:optimizeQuality;" viewBox="0 0 391 391" x="0px" y="0px" fill-rule="evenodd" clip-rule="evenodd"><defs><style type="text/css">
   
    .fil0 {fill:black}
    .fil1 {fill:black;fill-rule:nonzero}
   
  </style></defs><g><path class="fil0" d="M196 97c33,0 60,27 60,60 0,34 -27,61 -60,61 -34,0 -61,-27 -61,-61 0,-33 27,-60 61,-60z"/><path class="fil1" d="M196 0c108,0 195,88 195,196 0,108 -87,195 -195,195 -108,0 -196,-87 -196,-195 0,-108 88,-196 196,-196zm0 25c-94,0 -171,77 -171,171 0,94 77,170 171,170 94,0 170,-76 170,-170 0,-94 -76,-171 -170,-171z"/><path class="fil0" d="M150 232l91 0c41,0 64,33 64,71 -60,61 -159,61 -218,0 0,-38 22,-71 63,-71z"/></g></svg>